<svg width="495" height="74" viewBox="0 0 495 74" fill="none" xmlns="http://www.w3.org/2000/svg">
<path d="M181.84 41.9086C181.84 36.9875 184.2 34.0887 188.716 34.0887C192.963 34.0887 194.379 37.1223 194.379 41.0322V61.9975H203.951V39.9536C203.951 31.7293 199.637 25.8644 191.143 25.8644C186.087 25.8644 182.514 27.4149 179.413 30.8529C177.391 27.752 173.953 25.8644 169.167 25.8644C164.111 25.8644 160.605 27.9542 158.987 30.9878V26.6733H150.156V61.9975H159.729V41.7063C159.729 36.9875 162.156 34.0887 166.605 34.0887C170.852 34.0887 172.268 37.1223 172.268 41.0322V61.9975H181.84V41.9086Z" fill="#21004B"/>
<path d="M243.243 47.0993C243.243 47.0993 243.378 45.8185 243.378 44.268C243.378 33.8191 236.299 25.8644 225.85 25.8644C215.402 25.8644 208.121 33.8191 208.121 44.268C208.121 55.1214 215.469 62.8064 225.918 62.8064C234.075 62.8064 240.546 57.8853 242.636 50.7396H232.996C231.85 53.3013 229.086 54.5821 226.188 54.5821C221.401 54.5821 218.3 51.953 217.626 47.0993H243.243ZM225.783 33.5494C230.232 33.5494 233.131 36.2459 233.805 40.2233H217.761C218.57 36.1785 221.401 33.5494 225.783 33.5494Z" fill="#21004B"/>
<path d="M244.789 34.8977H249.036V61.9975H258.609V26.6733H244.789V34.8977ZM253.822 22.0893C257.193 22.0893 259.62 19.7299 259.62 16.3592C259.62 12.9886 257.193 10.5618 253.822 10.5618C250.452 10.5618 248.025 12.9886 248.025 16.3592C248.025 19.7299 250.452 22.0893 253.822 22.0893Z" fill="#21004B"/>
<path d="M278.431 53.7732C278.161 53.7732 277.756 53.8406 277.15 53.8406C274.993 53.8406 274.723 52.8294 274.723 51.3463V11.4381H265.15V52.0204C265.15 59.0313 267.847 62.1323 275.464 62.1323C276.745 62.1323 277.959 61.9975 278.431 61.9301V53.7732Z" fill="#21004B"/>
<path d="M279.52 34.8977H283.767V61.9975H293.339V26.6733H279.52V34.8977ZM288.553 22.0893C291.924 22.0893 294.35 19.7299 294.35 16.3592C294.35 12.9886 291.924 10.5618 288.553 10.5618C285.182 10.5618 282.756 12.9886 282.756 16.3592C282.756 19.7299 285.182 22.0893 288.553 22.0893Z" fill="#21004B"/>
<path d="M312.558 62.3678C321.861 62.3678 326.243 57.4467 326.243 52.256C326.243 37.8297 305.008 45.8518 305.008 36.3466C305.008 33.2456 307.637 30.6165 312.962 30.6165C318.423 30.6165 320.985 33.5827 321.389 37.2904H326.175C325.771 32.6389 322.602 26.437 313.097 26.437C304.94 26.437 300.356 31.2907 300.356 36.5488C300.356 50.6381 321.591 42.5486 321.591 52.3908C321.591 55.8288 318.355 58.1883 312.558 58.1883C306.626 58.1883 303.66 55.2221 303.322 50.8403H298.469C298.873 56.84 302.648 62.3678 312.558 62.3678Z" fill="#21004B"/>
<path d="M364.257 45.7844C364.257 45.7844 364.324 44.7057 364.324 43.9642C364.324 34.2568 358.055 26.437 347.808 26.437C337.494 26.437 330.955 34.8635 330.955 44.3687C330.955 54.0087 337.022 62.3678 347.876 62.3678C356.033 62.3678 361.695 57.3793 363.718 50.8403H358.729C357.246 55.0199 353.201 58.0534 347.943 58.0534C340.73 58.0534 336.213 52.7278 335.742 45.7844H364.257ZM347.808 30.7514C354.55 30.7514 358.931 35.268 359.538 41.8744H335.876C336.685 35.5377 341.135 30.7514 347.808 30.7514Z" fill="#21004B"/>
<path d="M394.038 45.245V48.4809C394.038 54.3457 389.791 58.3905 381.634 58.3905C376.578 58.3905 373.814 56.3007 373.814 51.7841C373.814 49.492 374.893 47.7393 376.578 46.7955C378.331 45.8518 380.69 45.245 394.038 45.245ZM381.095 62.3678C387.027 62.3678 391.813 60.4803 394.24 56.5704V61.5589H398.824V39.1105C398.824 31.4929 394.443 26.437 384.533 26.437C375.028 26.437 370.848 31.2233 369.972 37.3578H374.623C375.567 32.5041 379.275 30.5491 384.331 30.5491C390.802 30.5491 394.038 33.2456 394.038 39.0431V41.2677C383.185 41.2677 378.668 41.47 375.297 42.8182C371.387 44.3687 369.095 47.8067 369.095 51.9189C369.095 57.9186 372.938 62.3678 381.095 62.3678Z" fill="#21004B"/>
<path d="M424.992 26.9763C424.992 26.9763 424.183 26.9089 423.846 26.9089C417.509 26.9089 414.139 30.2121 412.858 32.5715V27.2459H408.274V61.5589H413.06V42.0767C413.06 34.9309 417.442 31.4255 423.307 31.4255C424.183 31.4255 424.992 31.4929 424.992 31.4929V26.9763Z" fill="#21004B"/>
<path d="M425.809 44.4361C425.809 53.8064 432.281 62.3678 442.73 62.3678C452.033 62.3678 457.426 56.1659 458.774 49.3572H453.92C452.505 54.6828 448.595 58.0534 442.73 58.0534C435.517 58.0534 430.663 52.3234 430.663 44.4361C430.663 36.4814 435.517 30.7514 442.73 30.7514C448.595 30.7514 452.505 34.122 453.92 39.4476H458.774C457.426 32.6389 452.033 26.437 442.73 26.437C432.281 26.437 425.809 34.9984 425.809 44.4361Z" fill="#21004B"/>
<path d="M470.042 10.9995H465.256V61.5589H470.042V41.2677C470.042 34.2568 474.559 30.6165 480.356 30.6165C486.491 30.6165 489.389 34.3916 489.389 40.5936V61.5589H494.176V39.6498C494.176 32.0322 489.659 26.437 481.165 26.437C474.761 26.437 471.255 29.9424 470.042 32.0322V10.9995Z" fill="#21004B"/>
<path d="M0.825195 73.367L24.069 13.8964C27.3445 5.51581 35.4225 0 44.4205 0H58.4338L35.19 59.4706C31.9145 67.8512 23.8365 73.367 14.8385 73.367H0.825195Z" fill="url(#paint0_linear_1938_4935)"/>
<path d="M34.9248 73.3672L58.1686 13.8966C61.4441 5.51599 69.5221 0.000175192 78.5201 0.000175192H92.5334L69.2897 59.4708C66.0141 67.8514 57.9362 73.3672 48.9382 73.3672H34.9248Z" fill="url(#paint1_linear_1938_4935)"/>
<path d="M69.0264 73.3672L92.2702 13.8966C95.5457 5.51599 103.624 0.000175192 112.622 0.000175192H126.635L103.391 59.4708C100.116 67.8514 92.0377 73.3672 83.0398 73.3672H69.0264Z" fill="url(#paint2_linear_1938_4935)"/>
<defs>
<linearGradient id="paint0_linear_1938_4935" x1="126.635" y1="-5.60397" x2="0.825196" y2="65.4718" gradientUnits="userSpaceOnUse">
<stop stop-color="#FF5CAA"/>
<stop offset="1" stop-color="#FF4E62"/>
</linearGradient>
<linearGradient id="paint1_linear_1938_4935" x1="126.635" y1="-5.60397" x2="0.825196" y2="65.4718" gradientUnits="userSpaceOnUse">
<stop stop-color="#FF5CAA"/>
<stop offset="1" stop-color="#FF4E62"/>
</linearGradient>
<linearGradient id="paint2_linear_1938_4935" x1="126.635" y1="-5.60397" x2="0.825196" y2="65.4718" gradientUnits="userSpaceOnUse">
<stop stop-color="#FF5CAA"/>
<stop offset="1" stop-color="#FF4E62"/>
</linearGradient>
</defs>
</svg>
